<?xml version="1.0" encoding="UTF-8" standalone="no"?>
<svg
   height="100"
   preserveAspectRatio="xMidYMid"
   viewBox="0 0 100 100"
   width="100"
   version="1.1"
   id="svg26"
   sodipodi:docname="icon.svg"
   inkscape:version="1.2.2 (732a01da63, 2022-12-09, custom)"
   xmlns:inkscape="http://www.inkscape.org/namespaces/inkscape"
   xmlns:sodipodi="http://sodipodi.sourceforge.net/DTD/sodipodi-0.dtd"
   xmlns="http://www.w3.org/2000/svg"
   xmlns:svg="http://www.w3.org/2000/svg">
  <defs
     id="defs30" />
  <sodipodi:namedview
     id="namedview28"
     pagecolor="#ffffff"
     bordercolor="#000000"
     borderopacity="0.25"
     inkscape:showpageshadow="2"
     inkscape:pageopacity="0.0"
     inkscape:pagecheckerboard="0"
     inkscape:deskcolor="#d1d1d1"
     showgrid="false"
     inkscape:zoom="4.8640777"
     inkscape:cx="101.04691"
     inkscape:cy="102.17764"
     inkscape:window-width="1452"
     inkscape:window-height="1205"
     inkscape:window-x="2566"
     inkscape:window-y="494"
     inkscape:window-maximized="0"
     inkscape:current-layer="svg26" />
  <path
     d="m 66.504562,30.19475 8.692585,-8.692582 0.57929,-3.660158 C 59.9362,3.4384892 34.756112,5.071693 20.47681,21.249824 16.510402,25.743186 13.567823,31.345141 11.998681,37.129909 l 3.113283,-0.438672 17.384772,-2.866798 1.342188,-1.372657 C 41.57213,23.95881 54.647526,22.816231 63.576436,30.042406 Z"
     fill="#ea4335"
     id="path18"
     style="stroke-width:0.390625" />
  <path
     d="m 87.579997,36.874284 c -1.99805,-7.357816 -6.1,-13.972271 -11.80352,-19.032039 L 63.576475,30.04225 c 5.151564,4.209376 8.086331,10.550785 7.96055,17.20196 v 2.165625 c 5.996482,0 10.858202,4.86133 10.858202,10.857817 0,5.996877 -4.86172,10.736332 -10.858202,10.736332 H 49.790532 l -2.135157,2.31797 v 13.023443 l 2.135157,2.04336 h 21.746493 c 15.597662,0.121484 28.340632,-12.302349 28.462122,-27.900011 0.0734,-9.454301 -4.58789,-18.317585 -12.41915,-23.614462"
     fill="#4285f4"
     id="path20"
     style="stroke-width:0.390625" />
  <path
     d="M 28.074352,88.388952 H 49.790376 V 71.003789 H 28.074352 c -1.547267,-3.91e-4 -3.045705,-0.332813 -4.452737,-0.975782 l -3.08086,0.945313 -8.753519,8.692582 -0.7625,2.958595 c 4.908986,3.706642 10.898441,5.791018 17.049616,5.764455"
     fill="#34a853"
     id="path22"
     style="stroke-width:0.390625" />
  <path
     d="M 28.074352,31.994321 C 12.476299,32.087291 -0.09245556,44.807607 5.1243691e-4,60.405269 0.05246244,69.115429 4.1204364,77.314651 11.024736,82.624419 l 12.596879,-12.59649 c -5.465236,-2.469141 -7.893753,-8.900784 -5.424611,-14.36563 2.468751,-5.464846 8.900785,-7.893363 14.36524,-5.424612 2.408204,1.087891 4.33672,3.016798 5.424611,5.424612 l 12.59688,-12.59649 C 45.223968,36.059166 36.895839,31.96268 28.074352,31.994321"
     fill="#fbbc05"
     id="path24"
     style="stroke-width:0.390625" />
</svg>
